<?xml version='1.0' encoding='utf-8'?>
<svg xmlns="http://www.w3.org/2000/svg" width="124.342105px" height="42px" viewBox="0 0 450 152" fill="none">
<path d="M149.342 66.9572C149.342 69.143 150.802 70.9457 153.699 72.2977C156.596 73.6723 160.123 74.8891 164.278 75.9257C168.433 76.9623 172.588 78.2918 176.744 79.8691C180.899 81.469 184.425 84.128 187.323 87.8461C190.22 91.5867 191.68 96.2513 191.68 101.84C191.68 110.29 188.536 116.802 182.247 121.354C175.958 125.906 168.096 128.182 158.708 128.182C141.862 128.182 130.362 121.647 124.253 108.577L142.626 98.2117C145.029 105.355 150.397 108.915 158.708 108.915C166.255 108.915 170.028 106.549 170.028 101.84C170.028 99.6539 168.568 97.8512 165.671 96.4991C162.773 95.1246 159.247 93.8852 155.092 92.8036C150.936 91.6994 146.781 90.3248 142.626 88.6799C138.471 87.0349 134.944 84.421 132.047 80.8606C129.149 77.3003 127.69 72.816 127.69 67.453C127.69 59.3408 130.677 52.9411 136.629 48.2766C142.581 43.6121 150.015 41.2686 158.865 41.2686C165.536 41.2686 171.6 42.7784 177.081 45.7979C182.561 48.8174 186.873 53.1214 190.04 58.7323L171.982 68.6022C169.354 63.0138 164.974 60.197 158.843 60.197C156.102 60.197 153.834 60.8055 152.037 61.9998C150.24 63.2166 149.319 64.8616 149.319 66.9347L149.342 66.9572Z" fill="#00C3FF" />
<path d="M238.443 77.2101H221.058V98.2567C221.058 101.119 221.777 103.192 223.192 104.521C224.607 105.828 226.696 106.617 229.436 106.752C233.659 106.955 233.681 106.955 238.465 106.91V125.951C223.304 126.965 214.814 126.221 208.84 121.827C202.865 117.433 199.9 109.591 199.9 98.2793V64.0278V43.567V20.5148H221.081V56.7944H238.465V77.1875L238.443 77.2101Z" fill="#00C3FF" />
<path d="M320.312 56.794V55.0589C320.312 43.4315 323.546 34.5982 329.993 28.5591C336.439 22.52 346.074 19.8836 358.877 20.6497V41.0654C347.287 40.1866 341.492 44.8511 341.492 55.0589V56.794H358.877V77.1872H341.47V125.883H320.312V56.794Z" fill="#00C3FF" />
<path d="M38.565 43.5673H17.407V117.456C17.407 127.664 11.6122 132.328 0 131.449V151.865C12.8026 152.631 22.4382 149.995 28.8845 143.956C35.3307 137.917 38.565 129.083 38.565 117.456V43.5673Z" fill="#00C3FF" />
<path d="M289.271 98.8876V77.2101H310.429V99.3383C310.429 104.679 309.171 109.997 306.498 114.639C302.68 121.264 295.201 128.272 280.758 128.272C266.316 128.272 258.073 122.188 253.648 115.991C250.1 111.033 248.348 104.994 248.348 98.8876V20.5148H269.506V98.8876C269.416 104.408 273.908 108.983 279.388 108.983C284.846 108.983 289.361 104.386 289.271 98.8876Z" fill="#00C3FF" />
<path d="M117.807 43.5673V94.4263C117.223 113.084 101.86 128.092 83.4193 128.25C64.7545 128.407 49.032 113.31 48.4255 94.4263V43.5673H69.606V92.6911C69.606 98.1894 71.0659 102.381 74.0307 105.288C79.017 110.177 87.1927 110.177 92.2014 105.288C95.1662 102.381 96.6262 98.1894 96.6262 92.6911V43.5898H117.807V43.5673Z" fill="#00C3FF" />
<path d="M450 85.9532C450 73.1765 446.002 62.5405 438.006 54.0002C430.01 45.4599 419.723 41.201 407.19 41.201C395.601 41.201 385.987 45.3021 378.328 53.4594C378.239 53.5495 378.171 53.6171 378.081 53.7073C378.014 53.7749 377.969 53.8425 377.902 53.9101C377.857 53.9777 377.789 54.0227 377.744 54.0903C370.198 62.3152 366.424 72.5456 366.424 84.7815C366.424 97.0174 370.355 107.676 378.239 115.923C386.122 124.171 396.566 128.272 409.616 128.272C421.161 128.272 430.572 124.847 437.827 117.996C440.005 115.923 442.184 113.354 443.981 110.65L427.068 101.389C423.093 106.437 417.387 109.005 409.931 109.005C397.847 109.005 390.435 103.845 387.694 93.5246H449.484C449.821 91.091 450 88.5897 450 85.9758V85.9532ZM386.279 77.1876C387.492 71.6442 389.985 67.3628 393.736 64.2982C397.487 61.2561 402.227 59.7238 407.976 59.7238C412.828 59.7238 417.163 61.166 420.959 64.0503C424.755 66.9346 427.27 71.3062 428.483 77.1876H386.279Z" fill="#00C3FF" />
<path d="M34.8397 12.3318L35.2166 12.4388L35.0737 12.9421L34.6969 12.8351L34.8397 12.3318ZM23.6068 14.994L24.11 15.1369L24.0031 15.5138L23.4998 15.3709L23.6068 14.994ZM27.3297 14.8265L27.4367 14.4497C28.2287 14.5379 28.05 15.1676 27.3297 14.8265ZM28.2623 13.4572L28.1553 13.834C27.3633 13.7458 27.542 13.1161 28.2623 13.4572ZM28.1329 12.4693L28.2398 12.0925C29.0319 12.1807 28.889 12.684 28.1329 12.4693ZM29.9697 12.7175L29.34 12.5388C29.5188 11.9091 30.1485 12.0878 29.9697 12.7175ZM35.0903 11.4493L34.9833 11.8262C34.2272 11.6115 34.37 11.1082 35.0903 11.4493ZM25.5647 13.3719L26.1944 13.5506L26.0516 14.0539C25.7987 13.9821 25.6747 13.9469 25.4936 13.6223L25.5654 13.3695L25.5647 13.3719ZM24.7397 15.3156L25.3695 15.4944L25.2977 15.7472C25.0995 15.9642 24.849 15.8931 24.6321 15.6949L24.7391 15.318L24.7397 15.3156ZM26.5542 14.1992C26.59 14.0727 26.6065 13.5336 26.9857 13.6412C27.4531 13.9105 26.8975 14.4332 26.5542 14.1992ZM24.1318 16.5039C23.8072 16.685 23.4474 16.0365 23.8978 15.8937C24.096 15.6767 24.2941 16.4134 24.1318 16.5039ZM23.087 16.344C23.0511 16.4704 22.5119 16.4539 22.5837 16.2011C22.5455 15.3732 23.4116 16.1629 23.087 16.344ZM33.7615 11.3453L33.1676 11.0401L33.2394 10.7873L33.564 10.6062C33.8169 10.678 33.8339 11.0901 33.7621 11.3429L33.7615 11.3453ZM31.155 12.3736C31.2097 12.6623 30.6876 13.0579 30.473 12.8604C30.2919 12.5358 30.9764 12.0496 31.155 12.3736ZM31.6218 11.6916C31.5859 11.818 31.4236 11.9086 31.2972 11.8727C31.0444 11.8009 31.0803 11.6745 31.1162 11.5481C31.1879 11.2952 31.2231 11.1712 31.476 11.243C31.6024 11.2788 31.6929 11.4412 31.6218 11.6916ZM25.0808 14.5954C25.009 14.8482 24.8474 14.9364 24.721 14.9005C24.5946 14.8646 24.504 14.7023 24.5751 14.4519C24.611 14.3254 24.7733 14.2349 24.8997 14.2708C25.0261 14.3067 25.1167 14.469 25.0808 14.5954ZM22.7483 17.0649C22.7124 17.1913 22.5501 17.2818 22.2997 17.2107C22.1732 17.1749 22.0827 17.0125 22.1186 16.8861C22.1904 16.6333 22.352 16.5451 22.4784 16.581C22.7312 16.6528 22.8194 16.8144 22.7483 17.0649ZM31.6801 13.8835C31.6442 14.0099 31.4819 14.1004 31.2314 14.0294C31.105 13.9935 31.0145 13.8312 31.0504 13.7047C31.0863 13.5783 31.2486 13.4878 31.375 13.5237C31.6278 13.5955 31.716 13.7571 31.6801 13.8835ZM30.5088 13.6876C30.4729 13.814 30.3106 13.9046 30.0602 13.8335C29.9338 13.7976 29.8432 13.6353 29.8791 13.5089C29.9509 13.256 30.1125 13.1679 30.2389 13.2038C30.4918 13.2756 30.5799 13.4372 30.5088 13.6876ZM29.0542 14.499C28.9824 14.7518 28.8208 14.84 28.6944 14.8041C28.568 14.7682 28.4775 14.6059 28.5485 14.3555C28.5844 14.2291 28.7467 14.1385 28.8732 14.1744C28.9996 14.2103 29.0901 14.3726 29.0542 14.499ZM36.9241 10.7456L36.8171 11.1224C36.5643 11.0507 36.3138 10.9796 36.1328 10.655C36.4574 10.4739 36.7078 10.545 36.9248 10.7432L36.9241 10.7456ZM32.8266 11.7604C32.7907 11.8868 32.6284 11.9773 32.378 11.9062C32.2515 11.8704 32.161 11.708 32.1969 11.5816C32.2328 11.4552 32.3951 11.3647 32.5215 11.4006C32.7743 11.4723 32.8625 11.634 32.8266 11.7604ZM32.3786 12.8575C32.3427 12.9839 32.1804 13.0744 32.054 13.0386C31.9275 13.0027 31.713 12.8052 31.7489 12.6787C31.7847 12.5523 32.0735 12.4977 32.1975 12.5329C32.3215 12.5681 32.4144 12.7311 32.3786 12.8575ZM26.0156 15.134L25.5123 14.9911C25.6005 14.1991 26.3567 14.4137 26.0156 15.134ZM33.4757 12.3519L33.6545 11.7222C34.4106 11.9368 34.2319 12.5665 33.4757 12.3519ZM28.7656 13.6L28.9443 12.9703C29.7004 13.185 29.5217 13.8147 28.7656 13.6ZM31.68 14.8371C31.8611 15.1617 31.0526 15.6127 30.9433 15.0353C30.9598 14.4961 31.5536 14.8012 31.68 14.8371ZM26.1256 15.709C26.3784 15.7808 26.1638 16.5369 25.7845 16.4293C25.3171 16.16 25.9992 15.6731 26.1256 15.709ZM34.6804 13.3743C34.6445 13.5007 34.4822 13.5912 34.3558 13.5554C34.103 13.4836 34.0148 13.322 34.0507 13.1955C34.1225 12.9427 34.2841 12.8546 34.5346 12.9257C34.661 12.9615 34.7515 13.1238 34.6804 13.3743ZM33.4398 13.4319C32.8101 13.2532 32.7906 12.8404 33.4016 12.604C33.6185 12.8022 33.5474 13.0527 33.4398 13.4319ZM23.0922 19.2038C23.3809 19.1492 23.6314 19.2203 23.686 19.509L23.0758 19.743C22.9852 19.5807 22.8947 19.4184 23.0922 19.2038ZM27.9811 17.326L27.4778 17.1831L27.6566 16.5534L27.9976 16.7868C28.2145 16.985 28.0522 17.0755 27.9811 17.326ZM32.9947 16.4346C32.9229 16.6874 32.7613 16.7756 32.5108 16.7045C32.3844 16.6686 32.2939 16.5063 32.365 16.2558C32.4009 16.1294 32.5632 16.0389 32.6896 16.0748C32.9424 16.1466 33.0306 16.3082 32.9947 16.4346ZM25.9521 19.1986C25.9521 19.1986 25.5393 19.218 25.4488 19.0557C25.2312 17.9063 26.4742 18.803 25.9521 19.1986ZM32.9035 15.321C32.8318 15.5739 32.5437 15.6261 32.4197 15.5909C32.2957 15.5557 32.0787 15.3575 32.1498 15.1071C32.1857 14.9807 32.4744 14.926 32.5984 14.9612C32.7225 14.9964 32.9394 15.1946 32.9035 15.321ZM27.6184 15.7255C27.5466 15.9784 27.4396 16.3552 27.0628 16.2483C26.8099 16.1765 26.8452 15.0988 27.6184 15.7255ZM23.846 18.4642L23.1093 18.6623L23.2522 18.159C23.7008 18.0131 23.6649 18.1395 23.846 18.4642ZM24.855 18.7506C25.1795 19.5231 23.5979 19.3474 24.3517 18.6077C24.5499 18.3907 24.855 18.7506 24.855 18.7506ZM22.7153 19.0969C23.0204 19.4567 21.9615 19.8365 22.0139 19.1709C21.9592 18.8822 22.7505 18.9728 22.7153 19.0969ZM23.8266 17.0978C24.0077 17.4224 22.9464 17.8016 22.9635 17.26C23.0705 16.8831 23.7361 16.9355 23.8266 17.0978ZM24.7062 16.3964C24.8685 16.3058 25.5887 16.6469 25.3553 16.9879C25.086 17.4553 24.3488 16.7021 24.7062 16.3964ZM30.3495 14.7301C30.2777 14.9829 30.1161 15.0711 29.8657 15C29.7392 14.9641 29.5247 14.7666 29.5958 14.5161C29.6317 14.3897 29.9556 14.211 30.0796 14.2462C30.3325 14.318 30.3847 14.6061 30.3495 14.7301ZM31.2373 17.8405L31.416 17.2108C32.4585 17.3701 32.2439 18.1262 31.2373 17.8405ZM33.0882 17.5488C33.0164 17.8017 32.8548 17.8898 32.7284 17.8539C32.4756 17.7822 32.3874 17.6205 32.4585 17.3701C32.4944 17.2437 32.6567 17.1531 32.9071 17.2242C33.0336 17.2601 33.1241 17.4224 33.0882 17.5488ZM22.713 18.1425C22.6412 18.3954 22.4796 18.4835 22.2292 18.4124C22.1028 18.3765 21.8882 18.179 21.9593 17.9286C21.9952 17.8022 22.3191 17.6235 22.4431 17.6587C22.696 17.7305 22.7482 18.0185 22.713 18.1425ZM33.7097 13.9158C34.0865 14.0228 34.2512 14.8865 33.5309 14.5455L33.314 14.3473C33.2234 14.185 33.5833 13.8799 33.7097 13.9158ZM31.7899 16.3658C31.754 16.4922 31.5565 16.7068 31.3061 16.6357C31.1797 16.5998 31.125 16.3111 31.1602 16.1871C31.232 15.9342 31.3936 15.8461 31.52 15.882C31.7729 15.9537 31.861 16.1154 31.7899 16.3658ZM28.221 20.7937C28.0229 20.0571 29.0654 20.2164 29.0841 20.6315C28.9772 21.0084 28.4021 21.1183 28.221 20.7937ZM32.9395 14.241C32.9036 14.3674 32.6149 14.4221 32.4909 14.3869C32.238 14.3151 32.1499 14.1535 32.1858 14.027C32.2575 13.7742 32.4191 13.6861 32.6696 13.7571C32.796 13.793 33.0106 13.9905 32.9395 14.241ZM34.9168 13.9852L34.9909 14.6867L34.3971 14.3815L34.9168 13.9852ZM27.1598 21.1729L27.4649 20.5791L28.1852 20.9202L28.0064 21.5499L27.1598 21.1729ZM29.6504 15.7585C29.6145 15.8849 29.417 16.0995 29.2905 16.0636C29.0377 15.9918 28.9854 15.7038 29.0206 15.5797C29.0924 15.3269 29.254 15.2388 29.5045 15.3098C29.6309 15.3457 29.7214 15.508 29.6504 15.7585ZM24.6903 17.8868C24.6545 18.0132 24.4569 18.2278 24.2065 18.1567C23.956 18.0856 23.9014 17.7969 23.9366 17.6728C24.0084 17.42 24.17 17.3318 24.4205 17.4029C24.6709 17.474 24.7614 17.6363 24.6903 17.8868ZM26.4524 17.4359C26.3807 17.6887 26.219 17.7769 25.9686 17.7058C25.8422 17.6699 25.6276 17.4724 25.6987 17.2219C25.7698 16.9715 26.0585 16.9168 26.1825 16.952C26.4354 17.0238 26.5235 17.1854 26.4524 17.4359ZM31.4713 18.4507C31.7412 18.9346 30.8087 19.3503 30.6629 18.9017C30.517 18.4531 31.3254 18.0021 31.4713 18.4507ZM30.0884 19.9629L29.9097 20.5926C29.0271 20.3421 29.1177 19.5508 30.0884 19.9629ZM21.7976 18.9704L21.7453 19.636L20.9891 19.4213L21.132 18.918L21.7976 18.9704ZM29.6563 18.616L30.4842 18.5778C30.3601 19.4962 29.4064 19.4961 29.6563 18.616ZM30.2448 17.0149L30.965 17.3559C31.1109 17.8046 30.3735 18.0051 30.0302 17.771L30.2448 17.0149ZM35.3483 15.3346C35.2765 15.5874 35.186 15.4251 35.0237 15.5156C33.8025 15.986 34.2317 14.4738 35.3483 15.3346ZM28.2704 19.1762L28.4491 18.5465C29.4916 18.7058 29.2411 19.5884 28.2704 19.1762ZM23.4003 20.5156C23.3644 20.642 23.1669 20.8566 22.9164 20.7855C22.666 20.7144 22.6113 20.4256 22.6466 20.3016C22.7183 20.0488 22.88 19.9606 23.1304 20.0317C23.3809 20.1028 23.4714 20.2651 23.4003 20.5156ZM26.7276 20.7796C27.3932 20.8319 26.9803 21.805 26.7299 21.7339C26.353 21.6269 26.1884 20.7632 26.7276 20.7796ZM33.5856 14.8342L34.2153 15.013C33.7666 15.1588 34.0912 15.9314 33.4615 15.7526C33.1564 15.3928 33.4779 15.2135 33.5856 14.8342ZM24.3164 19.6854L24.1377 20.3151L24.7674 20.4938L24.9461 19.8641L24.3164 19.6854ZM22.8806 20.9119C23.0429 20.8213 23.8871 21.1976 23.6202 21.6657C23.3151 22.2595 22.5231 21.2177 22.8806 20.9119ZM26.1532 20.8872C26.2437 21.0495 25.8675 21.8938 25.5258 21.6628C24.8056 21.3217 25.6305 20.3316 26.1532 20.8872ZM25.0919 21.2664L24.9131 21.8961L24.157 21.6815L24.4981 20.9612C24.6604 20.8707 24.9655 21.2305 25.0919 21.2664ZM31.2949 20.0348C31.2231 20.2876 30.9351 20.3399 30.6846 20.2688C30.4342 20.1977 30.3436 20.0354 30.4147 19.7849C30.4858 19.5345 30.684 19.3175 30.9344 19.3886C31.1849 19.4597 31.366 19.7843 31.2949 20.0348ZM26.4254 22.3254C26.3536 22.5782 26.0297 22.7569 25.7792 22.6858C25.6528 22.6499 25.4741 22.326 25.5452 22.0755C25.5811 21.9491 25.9051 21.7704 26.0291 21.8056C26.2819 21.8774 26.4606 22.2013 26.4254 22.3254ZM26.4225 20.4198C26.3507 20.6726 26.0627 20.7249 25.9386 20.6897C25.6858 20.6179 25.4712 20.4204 25.5423 20.17C25.6134 19.9195 25.938 19.7384 26.1885 19.8095C26.3149 19.8454 26.4936 20.1693 26.4225 20.4198ZM21.4536 17.785C21.7617 19.0968 20.1613 18.5059 20.7521 17.8591C20.9503 17.6422 21.236 17.5892 21.4536 17.785ZM27.8606 20.1476C26.5489 20.4557 27.1398 18.8553 27.7865 19.4461C27.8771 19.6084 27.9324 19.8947 27.8606 20.1476ZM34.3806 15.8743C34.6334 15.9461 34.1136 17.2961 33.5557 16.8645C32.9619 16.5593 34.059 16.0537 34.3806 15.8743ZM24.1952 22.5093C24.1235 22.7622 23.9259 22.9767 23.6755 22.9057C23.425 22.8346 23.244 22.51 23.3151 22.2595C23.3862 22.0091 23.6749 21.9544 23.9253 22.0255C24.1758 22.0966 24.2663 22.2589 24.1952 22.5093ZM29.912 21.5469C29.8402 21.7998 29.5163 21.9784 29.2658 21.9074C29.0154 21.8363 28.8343 21.5117 28.9054 21.2612C28.9765 21.0108 29.2652 20.9561 29.5157 21.0272C29.7661 21.0983 29.9831 21.2965 29.912 21.5469ZM22.8117 23.0703C22.1656 23.4307 22.0198 22.0284 22.6854 22.0808C23.0981 22.0613 23.2986 22.7987 22.8117 23.0703ZM21.4589 20.6449C21.0273 20.2492 22.0692 19.4573 22.3578 20.3563C22.4678 20.9313 21.6399 20.9695 21.4589 20.6449ZM22.6659 21.668C22.5942 21.9208 22.2702 22.0995 22.0198 22.0284C21.7693 21.9573 21.5883 21.6327 21.6594 21.3823C21.7305 21.1318 22.0192 21.0772 22.2696 21.1483C22.5201 21.2194 22.737 21.4176 22.6659 21.668ZM32.2468 20.0318L31.4742 20.3563L31.6335 19.3138C32.2438 19.0798 32.6401 19.5996 32.2468 20.0318ZM21.4071 22.2618C22.5207 22.1706 21.9322 23.7717 21.1925 23.0179C20.761 22.6222 20.868 22.2453 21.4071 22.2618ZM27.7012 22.1437C27.5389 22.2342 26.9122 23.0074 27.1074 21.8385C27.3056 21.6216 27.773 21.8908 27.9353 21.8003C28.0617 21.8362 28.1335 21.5834 28.2951 21.4952C28.8343 21.5117 29.2494 22.4465 28.4574 22.3583C28.331 22.3224 27.99 22.089 27.7012 22.1437ZM24.6267 22.905C24.6267 22.905 24.4286 22.1684 24.8414 22.1489C25.1301 22.0943 25.4352 22.4541 25.3641 22.7045C25.4546 22.8668 25.0395 22.8856 25.0043 23.0096C24.8061 23.2266 25.0237 23.4224 24.8255 23.6393C24.5563 24.1067 23.9266 23.928 23.9789 23.2624C24.1218 22.7591 24.4627 22.9925 24.625 22.902L24.6267 22.905ZM38.5575 9.30448C41.813 9.82135 41.3679 12.824 41.068 15.3241C40.3948 21.5276 38.1063 28.6361 32.142 31.433C23.2132 35.5663 14.4033 26.8049 19.3522 18.0056C22.5426 12.514 29.7304 10.201 35.6617 9.43615C36.4896 9.39794 37.7655 9.21627 38.5575 9.30448ZM36.2614 12.5988C36.3332 12.346 36.3497 11.8068 36.8888 11.8232L36.6548 11.213C37.3204 11.2653 36.9599 11.5728 37.1417 11.895C37.6996 12.3266 37.8431 11.8209 37.9696 11.8568C38.2224 11.9286 38.9956 12.5553 39.1026 12.1784C39.1743 11.9256 38.096 11.8927 38.2388 11.3894L37.6286 11.6234L37.2494 10.5621C37.6263 10.6691 37.9337 11.0296 38.3106 11.1366C38.5993 11.0819 38.9568 10.7761 39.2649 11.1342L39.6606 10.7027C39.2838 10.5958 39.212 10.8486 38.7063 10.705L37.4469 10.3475C37.3205 10.3117 37.5898 9.84426 37.1418 9.98774L36.7461 10.4193L36.3146 10.0236L35.5967 10.6368C35.5608 10.7632 35.9735 10.7438 35.7066 11.2119C36.8943 11.8222 36.4104 12.0921 35.4015 11.8057C35.4374 11.6793 35.6708 11.3383 35.7066 11.2119L35.0769 11.0331L35.4726 10.6016L34.8788 10.2964L34.2327 10.6569C34.3396 10.28 33.6388 10.3517 33.2261 10.3711C32.9374 10.4258 32.8663 10.6762 32.7064 10.7674C32.4176 10.8221 32.0408 10.7151 31.7521 10.7698C31.2129 10.7533 30.7625 10.8961 30.1875 11.0061C29.9893 11.223 30.278 11.1684 30.3685 11.3307C30.5496 11.6553 30.4232 11.6194 30.0993 11.7981L29.8653 11.1878C29.0568 11.6388 28.0673 11.7651 27.1348 12.1809C27.5476 12.1614 27.6216 12.8629 27.2448 12.7559C26.6697 12.8659 26.9749 12.2721 27.1348 12.1809C26.651 12.4508 26.4692 12.1286 26.4722 13.0805C26.221 13.0092 26.0771 12.8773 26.0407 12.6848C25.6809 12.9899 24.9435 13.1904 24.8912 13.856L24.0633 13.8942L23.8845 14.5239L22.9856 14.8125L23.0955 15.3876L22.1412 15.3899C22.3393 16.1266 22.1965 16.6299 21.5497 16.0391C21.478 16.2919 21.5333 16.5782 21.4615 16.8311C21.7143 16.9028 21.8384 16.938 21.893 17.2268C21.786 17.6036 21.0487 17.8041 21.2274 17.1744C21.2633 17.048 21.4608 16.8334 21.4608 16.8334C21.208 16.7617 21.084 16.7265 20.8858 16.9434C20.4901 17.3749 20.3824 17.7542 20.366 18.2934L19.7909 18.4033C19.865 19.1048 20.3847 18.7085 20.6905 19.0659C21.2132 19.6215 20.0279 19.9655 20.0249 19.0136L19.5052 19.4099L19.8821 19.5169C19.9561 20.2184 19.5051 20.3635 19.0377 20.0943C19.2717 20.7045 19.3787 20.3277 19.758 20.4353C20.0467 20.3807 20.1348 20.5423 20.2971 20.4518C20.4235 20.4876 20.6741 19.6051 21.1961 20.1631L21.0533 20.6664C20.9815 20.9192 20.6405 20.6858 20.4782 20.7764C20.3159 20.8669 20.1013 21.623 19.5433 21.1914L19.5239 20.7787L18.7154 21.2296L19.4716 21.4443L19.4551 21.9834C18.2339 22.4538 19.5651 22.5585 19.7796 22.756C19.9942 22.9535 19.7991 23.1688 20.0137 23.3663C20.4452 22.8083 19.7796 22.756 19.6345 22.305C19.5604 21.6035 19.9755 21.5847 20.4788 21.7276C20.3877 20.6141 21.9693 20.7898 21.3613 21.9781L20.5693 21.8899L20.3906 22.5196C20.3188 22.7725 21.1108 22.8607 20.8415 23.3281L20.069 23.6526L20.7892 23.9937L21.0039 23.2375C21.6336 23.4163 22.0651 23.812 21.4742 24.4587L20.1984 24.6404C20.0743 25.5588 20.7017 24.7833 20.864 24.6927C21.3126 24.5469 21.1168 24.7645 21.763 24.4041C21.9253 24.3136 22.1757 24.3847 22.1757 24.3847C22.5003 24.2036 21.9947 24.06 21.9417 23.7744C21.9394 22.8201 22.8407 23.4857 22.8407 23.4857C22.9671 23.5216 23.0741 23.1448 23.3604 23.0894C24.2235 22.9272 23.8855 24.5994 22.9288 23.6474L22.4255 24.4581C23.2886 24.2959 23.5944 24.6533 24.1883 24.0049L24.711 24.5605C24.6915 24.1477 25.1426 24.0025 25.2143 23.7497C25.4125 23.5328 25.1761 22.9218 25.5913 22.903C25.8441 22.9748 26.221 23.0818 26.1492 23.3346C26.2039 23.6234 25.3602 24.1983 25.8635 24.3412C26.1163 24.413 26.0422 23.7115 26.455 23.6921C27.1565 23.618 26.8865 24.0878 27.1041 24.2836C27.6075 23.4728 26.4003 23.4033 26.3122 23.2417L26.3286 22.7025C26.5268 22.4856 27.1012 22.378 27.2829 22.7002L27.2306 23.3658L28.2918 23.9403C28.3636 23.6874 28.6875 23.5087 28.4706 23.3106L27.8955 23.4205C27.2658 23.2418 27.912 21.9277 28.704 22.9696C28.7757 22.7167 29.045 22.2493 29.4219 22.3563C30.0157 22.6615 29.62 23.093 29.2626 23.3988L30.1257 23.2365C30.3239 23.0196 29.9993 23.2007 29.9087 23.0383C29.9446 22.9119 30.1421 22.6974 30.0516 22.5351C30.0875 22.4086 29.7106 22.3017 29.7465 22.1752C29.7271 21.7625 30.3021 21.6525 30.555 21.7243L30.6267 21.4715L30.104 20.9158L30.3733 20.4484C30.662 20.3938 30.8407 20.7177 31.0935 20.7895C31.2199 20.8254 31.561 20.1051 32.0478 20.7872C32.1907 20.2839 33.4666 19.1486 32.5841 18.8981C32.3312 18.8263 31.721 19.0603 31.8638 18.557C32.1144 17.6745 32.7823 18.6811 33.1038 18.5018L33.4067 16.9536C33.8194 16.9342 33.6407 17.5639 34.0558 17.5451C34.3445 17.4905 34.3251 17.0777 34.361 16.9513L34.6856 16.7702C35.1889 16.9131 34.8478 17.6333 35.4252 17.524L34.6692 16.3558C34.9908 15.2228 35.6593 17.1807 36.2696 16.9467C36.5748 16.3528 36.0526 16.7485 35.9645 16.5869C35.8381 16.551 35.9098 16.2981 35.7834 16.2622C35.6929 16.0999 35.4424 16.0289 35.4424 16.0289C35.4424 16.0289 35.9458 15.2181 35.5112 14.8241C35.583 14.5713 35.924 14.8047 35.924 14.8047C35.9599 14.6782 35.9957 14.5518 36.1574 14.4637C36.319 14.3755 36.4461 14.409 36.606 14.3178C36.7324 14.3537 37.0017 13.8863 37.1616 13.7951C37.5744 13.7756 37.846 14.2626 37.9895 13.7569C37.4316 13.3253 37.0352 13.7592 36.7495 13.8121C36.6231 13.7763 36.5326 13.6139 36.4086 13.5787C36.3727 13.7052 36.1939 14.3349 35.4931 14.4066C35.2762 14.2084 35.7789 13.4 35.9412 13.3095C36.1035 13.2189 36.318 13.4164 36.4444 13.4523C36.6067 13.3618 36.5162 13.1995 36.6778 13.1113C36.876 12.8944 37.217 13.1278 37.2335 12.5886L37.4863 12.6604L37.7562 13.1442L37.899 12.6409L38.457 13.0725L38.7263 12.6051C38.3135 12.6246 37.7197 12.3194 37.3045 12.3382C37.0517 12.2664 36.8207 12.6081 36.2791 12.5909C35.7406 13.5257 34.948 12.4863 35.9023 12.484C36.0646 12.3934 36.1551 12.5557 36.2791 12.5909L36.2614 12.5988ZM39.9103 11.7298L40.1632 11.8016L40.0173 11.353L39.9103 11.7298ZM40.2178 12.0903L40.1819 12.2167L40.4348 12.2885L40.4706 12.1621L40.2178 12.0903ZM39.4623 12.8269L39.8939 12.269L39.2283 12.2167L39.2118 12.7559L39.4647 12.8276L39.4623 12.8269ZM38.3675 13.3332L38.2605 13.7101C39.1431 13.9606 39.3218 13.3309 38.3675 13.3332ZM39.2671 13.9958L39.6269 13.6907L39.3741 13.619L39.2671 13.9958ZM40.4001 14.3174L40.3283 14.5703L40.4547 14.6062L40.5265 14.3533L40.4001 14.3174ZM38.3704 15.2388L38.4422 14.9859L38.0653 14.879L38.2464 15.2036L38.3728 15.2395L38.3704 15.2388ZM39.6298 15.5963L40.0785 15.4504L39.7016 15.3434L39.6298 15.5963ZM37.0751 15.0077L37.328 15.0795L37.3998 14.8266L37.0751 15.0077ZM36.4454 14.829L36.4096 14.9554L36.6624 15.0271L36.6983 14.9007L36.4454 14.829ZM36.77 15.6015C36.6241 15.1529 35.978 15.5133 35.7805 15.7279C35.9069 15.7638 36.9493 15.9231 36.77 15.6015ZM37.7078 16.1384L37.672 16.2648L38.0488 16.3718L38.0847 16.2454L37.7078 16.1384ZM36.8994 16.5893L37.0064 16.2125L36.88 16.1766L36.3961 16.4465L36.8994 16.5893ZM37.4027 16.7322L37.2957 17.1091L37.4221 17.145L37.5291 16.7681L37.4027 16.7322ZM36.8634 17.6694L37.188 17.4883L36.6489 17.4719L36.8658 17.6701L36.8634 17.6694ZM36.1455 18.2826C36.1814 18.1562 35.9833 17.4195 35.9474 17.546C35.714 17.8869 35.7687 18.1757 36.1455 18.2826ZM37.3503 18.3514L37.3144 18.4778L37.5672 18.5496L37.6031 18.4232L37.3503 18.3514ZM34.5622 18.1038L34.8321 18.5877C35.102 19.0715 35.4065 17.5265 34.0565 17.9603C33.4462 18.1943 33.8419 18.7164 33.7708 18.9669C33.5374 19.3078 32.5855 19.3108 33.4656 19.5607C34.4199 19.5584 33.7872 18.4277 34.5598 18.1032L34.5622 18.1038ZM37.0451 18.9452C37.069 18.861 37.0389 18.8069 36.9546 18.7829C36.8703 18.759 36.8162 18.7892 36.7923 18.8735C36.7564 18.9999 36.7205 19.1263 36.8469 19.1622C36.9733 19.1981 37.0092 19.0717 37.0451 18.9452ZM35.9668 18.9124C35.9668 18.9124 36.0027 18.7859 35.8762 18.7501C35.7498 18.7142 35.7139 18.8406 35.7139 18.8406C35.6781 18.967 35.6422 19.0934 35.7686 19.1293C35.895 19.1652 35.9309 19.0388 35.9668 18.9124ZM38.3786 20.0042L38.7384 19.6991L38.1993 19.6827L38.3803 20.0073L38.3786 20.0042ZM34.6198 19.3445C34.9085 19.2898 35.0685 19.1986 35.0155 18.913C34.7627 18.8412 34.6909 19.094 34.6198 19.3445ZM37.4961 19.7537L37.4602 19.8801L37.713 19.9519L37.7489 19.8255L37.4961 19.7537ZM35.8075 19.9548L36.1843 20.0618L36.2202 19.9354L35.9151 19.5756L35.8081 19.9524L35.8075 19.9548ZM35.0349 20.2793L34.3693 20.227L34.2264 20.7303C34.3529 20.7662 35.0349 20.2793 35.0349 20.2793ZM35.1613 20.3152L35.1254 20.4417L35.3783 20.5134L35.4141 20.387L35.1613 20.3152ZM33.8301 20.2106C33.7396 20.0483 32.7166 20.3017 32.9311 20.4992C33.2199 20.4446 33.7232 20.5874 33.8301 20.2106ZM34.5151 21.6293C34.551 21.5029 34.4246 21.467 34.2981 21.4311C34.2981 21.4311 34.1717 21.3952 34.1358 21.5216C34.1 21.6481 34.2264 21.6839 34.2264 21.6839C34.3528 21.7198 34.4792 21.7557 34.5151 21.6293ZM33.4015 21.7204L33.5085 21.3436C33.2198 21.3982 32.5737 20.805 32.5542 21.3459L33.2198 21.3982L33.4009 21.7228L33.4015 21.7204ZM32.0345 21.7422L32.3396 21.1484C31.9987 20.915 32.015 21.3294 31.891 21.2942C31.4783 21.3137 31.2067 20.8268 30.9726 21.1701C31.2254 21.2419 31.4759 21.313 31.6928 21.5112C32.0338 21.7446 31.5141 22.1409 32.3061 22.2291L32.0362 21.7453L32.0345 21.7422ZM33.1869 22.4766L33.2587 22.2237L32.5931 22.1714L32.5572 22.2978L33.1869 22.4766ZM34.5181 22.5812L34.4822 22.7076L34.8591 22.8146L34.895 22.6882L34.5181 22.5812ZM30.9021 22.3718L31.0091 21.995L30.7562 21.9232L30.7757 22.3359L30.9021 22.3718ZM31.4241 22.9298C31.6223 22.7129 31.567 22.4265 31.3501 22.2284C31.2783 22.4812 31.3883 23.0562 31.4241 22.9298ZM30.7592 22.8751L30.831 22.6223L30.5782 22.5505L30.2536 22.7316L30.7569 22.8744L30.7592 22.8751ZM32.3426 23.0539L32.3067 23.1803L32.81 23.3232L32.8459 23.1968L32.3426 23.0539ZM33.4756 23.3755L33.4397 23.502L33.6925 23.5737L33.7284 23.4473L33.4756 23.3755ZM34.6086 23.6972L34.5368 23.95L34.6632 23.9859L34.735 23.733L34.6086 23.6972ZM32.937 24.3103L32.7389 23.5737L32.4502 23.6283L32.6483 24.365L32.937 24.3103ZM31.0838 23.6477L31.012 23.9005L31.3889 24.0075L31.4606 23.7547L31.0838 23.6477ZM29.3234 24.1016L29.5762 24.1734L29.3952 23.8488L29.3234 24.1016ZM31.7158 24.7807L32.0404 24.5997L31.7876 24.5279L31.7158 24.7807ZM29.8267 24.2445L29.7549 24.4973L30.2582 24.6402L30.33 24.3874L29.8267 24.2445ZM28.1192 24.9841L28.8731 24.2444C28.7466 24.2085 27.5972 24.4261 27.5254 24.6789C27.8141 24.6243 27.9023 24.7859 28.1192 24.9841ZM30.7809 25.1958L31.1407 24.8907L30.6375 24.7478L30.5305 25.1247L30.7833 25.1965L30.7809 25.1958ZM32.5242 25.2834L32.4172 25.6603L32.5436 25.6962L32.6506 25.3193L32.5242 25.2834ZM26.5735 24.6819C26.142 24.2862 25.7104 24.8442 25.2976 24.8636C24.8849 24.883 24.0218 25.0453 23.5896 24.652L23.4467 25.1553L22.8365 25.3893L23.5567 25.7303L23.8619 25.1365C24.1865 24.9554 24.7085 25.5134 24.8684 25.4222C24.8684 25.4222 24.8138 25.1335 24.9754 25.0454C25.3 24.8643 26.1802 25.1141 26.5759 24.6826L26.5735 24.6819ZM26.6616 24.8436L26.9315 25.3274C27.1649 24.9864 27.1103 24.6977 26.7334 24.5907L26.6616 24.8436ZM28.8941 25.6139L29.2351 25.8473L29.2157 25.4345L28.8911 25.6156L28.8941 25.6139ZM29.7391 25.9878L30.0989 25.6827L29.6861 25.7021L29.7408 25.9908L29.7391 25.9878ZM28.3003 25.3087L28.2285 25.5615L28.6054 25.6685L28.6772 25.4157L28.3003 25.3087ZM18.676 23.2572L18.9288 23.329L18.7478 23.0044L18.676 23.2572ZM28.1933 25.6856C27.9764 25.4874 27.7447 25.8314 27.4919 25.7597C27.3654 25.7238 27.1509 25.5263 27.0245 25.4904C27.0245 25.4904 27.0791 25.7791 26.9527 25.7432C26.7545 25.9602 26.664 25.7979 26.5929 26.0483L26.7739 26.3729C27.115 25.6527 28.0139 26.3177 28.1927 25.688L28.1933 25.6856ZM29.0376 26.0618L28.9658 26.3147L29.0923 26.3506L29.164 26.0977L29.0376 26.0618ZM19.5227 23.6341L19.4868 23.7605L19.7396 23.8323L19.7755 23.7059L19.5227 23.6341ZM26.5023 25.886L25.6557 25.5091C25.5316 26.4275 24.919 25.7072 24.3986 26.1059C24.9213 26.6615 25.6744 25.9242 25.8368 25.8337C26.0896 25.9055 26.3947 26.2653 26.5023 25.886ZM30.9462 27.0108L30.9103 27.1373L31.1631 27.209L31.199 27.0826L30.9462 27.0108ZM28.716 27.1948L29.0406 27.0138L28.7878 26.942L28.716 27.1948ZM21.5029 25.2839L22.6718 25.4791C22.7077 25.3527 21.5194 24.7448 21.5029 25.2839ZM19.2728 24.5143L19.201 24.7671L19.3275 24.803L19.3992 24.5502L19.2728 24.5143ZM26.5047 26.8403L26.4329 27.0932C26.6498 27.2914 26.9721 27.1096 27.0432 26.8592L26.504 26.8427L26.5047 26.8403ZM23.626 26.4304L24.0747 26.2846L23.6073 26.0153L23.5355 26.2681L23.626 26.4304ZM21.918 26.2188L20.675 25.3221C20.3504 25.5032 21.6487 26.6862 21.918 26.2188ZM26.0902 26.8567L24.993 27.3623C25.4963 27.5052 25.8561 27.2001 26.0902 26.8567ZM24.5632 26.9697L24.7966 26.6287L24.5438 26.5569L24.5632 26.9697ZM19.5974 25.2869C19.5615 25.4133 19.5809 25.826 19.7073 25.8619C20.0842 25.9689 19.8861 25.2322 19.5974 25.2869ZM22.6389 26.5575L22.6748 26.431L22.3697 26.0712L22.2627 26.4481L22.6396 26.5551L22.6389 26.5575ZM24.528 27.0937L24.4562 27.3465L24.5827 27.3824L24.6544 27.1296L24.528 27.0937ZM21.4864 26.7767L21.4146 27.0296L21.541 27.0655L21.6128 26.8126L21.4864 26.7767ZM20.4087 26.7415C20.4087 26.7415 20.3182 26.5792 20.1918 26.5433C20.0654 26.5074 20.0295 26.6338 20.0295 26.6338C19.9936 26.7602 19.9577 26.8866 20.0841 26.9225C20.2105 26.9584 20.3728 26.8679 20.4087 26.7415ZM22.4601 27.1872L22.4243 27.3136L22.6771 27.3854L22.713 27.2589L22.4601 27.1872ZM22.045 27.2059L21.938 27.5828L22.0644 27.6187L22.1714 27.2418L22.045 27.2059ZM22.7324 28.6253L23.057 28.4443L22.8041 28.3725L22.7324 28.6253Z" fill="#00C3FF" />
<path d="M288.942 48.713L289.062 48.3399L289.56 48.4993L289.441 48.8724L288.942 48.713ZM291.231 60.028L291.39 59.5297L291.764 59.6491L291.604 60.1474L291.231 60.028ZM291.187 56.3015L290.814 56.1821C290.928 55.3934 291.552 55.593 291.187 56.3015ZM289.849 55.3241L290.222 55.4435C290.108 56.2322 289.484 56.0327 289.849 55.3241ZM288.858 55.4207L288.485 55.3013C288.599 54.5127 289.097 54.6721 288.858 55.4207ZM289.167 53.5931L288.967 54.2166C288.344 54.0171 288.543 53.3936 289.167 53.5931ZM288.069 48.4334L288.442 48.5528C288.202 49.3014 287.704 49.1419 288.069 48.4334ZM289.675 58.0174L289.874 57.3939L290.372 57.5534C290.292 57.8037 290.253 57.9265 289.923 58.0967L289.672 58.0166L289.675 58.0174ZM291.59 58.9063L291.79 58.2828L292.04 58.3629C292.25 58.5682 292.171 58.8161 291.965 59.0264L291.592 58.907L291.59 58.9063ZM290.534 57.0559C290.409 57.0158 289.871 56.9815 289.991 56.606C290.275 56.1478 290.78 56.7204 290.534 57.0559ZM292.758 59.5532C292.928 59.8836 292.268 60.2217 292.14 59.7669C291.93 59.5616 292.672 59.388 292.758 59.5532ZM292.563 60.5922C292.688 60.6322 292.654 61.1706 292.404 61.0905C291.575 61.1012 292.393 60.2618 292.563 60.5922ZM287.921 49.758L287.596 50.3414L287.346 50.2613L287.175 49.9309C287.256 49.6806 287.668 49.6772 287.918 49.7573L287.921 49.758ZM288.862 52.3971C289.152 52.352 289.53 52.8869 289.326 53.0948C288.996 53.2651 288.532 52.5649 288.862 52.3971ZM288.196 51.9079C288.321 51.948 288.406 52.1132 288.366 52.2384C288.286 52.4887 288.161 52.4486 288.036 52.4086C287.785 52.3285 287.663 52.2892 287.743 52.0389C287.783 51.9137 287.948 51.8286 288.196 51.9079ZM290.881 58.5415C291.132 58.6216 291.215 58.7861 291.174 58.9113C291.134 59.0364 290.969 59.1215 290.721 59.0422C290.596 59.0021 290.511 58.8369 290.551 58.7118C290.591 58.5866 290.756 58.5015 290.881 58.5415ZM293.272 60.9545C293.397 60.9946 293.483 61.1598 293.403 61.4078C293.363 61.5329 293.198 61.618 293.073 61.578C292.823 61.4979 292.74 61.3334 292.78 61.2083C292.86 60.9579 293.024 60.8752 293.272 60.9545ZM290.388 51.9223C290.514 51.9624 290.599 52.1276 290.519 52.3755C290.479 52.5007 290.314 52.5858 290.189 52.5457C290.064 52.5057 289.979 52.3405 290.019 52.2153C290.099 51.965 290.263 51.8823 290.388 51.9223ZM290.154 53.0864C290.279 53.1265 290.364 53.2917 290.285 53.5397C290.245 53.6648 290.08 53.7499 289.954 53.7099C289.704 53.6298 289.621 53.4653 289.661 53.3402C289.742 53.0898 289.906 53.0071 290.154 53.0864ZM290.917 54.5671C291.167 54.6472 291.25 54.8117 291.21 54.9368C291.17 55.062 291.004 55.1471 290.756 55.0677C290.631 55.0277 290.546 54.8625 290.586 54.7373C290.626 54.6122 290.792 54.5271 290.917 54.5671ZM287.426 46.5772L287.799 46.6966C287.719 46.947 287.64 47.1949 287.309 47.3651C287.139 47.0347 287.218 46.7867 287.424 46.5765L287.426 46.5772ZM288.304 50.7061C288.43 50.7462 288.515 50.9114 288.435 51.1593C288.395 51.2845 288.23 51.3696 288.105 51.3296C287.98 51.2895 287.895 51.1243 287.935 50.9991C288.015 50.7488 288.179 50.6661 288.304 50.7061ZM289.386 51.1902C289.511 51.2303 289.596 51.3955 289.556 51.5207C289.516 51.6458 289.312 51.8537 289.187 51.8137C289.061 51.7736 289.016 51.4832 289.056 51.3604C289.095 51.2376 289.261 51.1502 289.386 51.1902ZM291.451 57.6251L291.291 58.1234C290.503 58.009 290.742 57.2604 291.451 57.6251ZM288.917 50.0769L288.294 49.8774C288.533 49.1288 289.157 49.3283 288.917 50.0769ZM290.009 54.8258L289.385 54.6263C289.625 53.8777 290.248 54.0772 290.009 54.8258ZM291.342 51.9539C291.672 51.7837 292.096 52.6067 291.515 52.6968C290.977 52.6625 291.302 52.0791 291.342 51.9539ZM292.029 57.5342C292.109 57.2839 292.858 57.5234 292.738 57.8989C292.453 58.3572 291.989 57.6594 292.029 57.5342ZM289.979 48.9067C290.104 48.9468 290.189 49.112 290.149 49.2372C290.069 49.4875 289.905 49.5702 289.779 49.5302C289.529 49.4501 289.446 49.2856 289.526 49.0377C289.566 48.9125 289.731 48.8274 289.979 48.9067ZM289.995 50.1486C289.796 50.7721 289.383 50.7778 289.167 50.1594C289.372 49.9491 289.62 50.0285 289.995 50.1486ZM295.422 60.6817C295.376 60.3913 295.456 60.1433 295.746 60.0983L295.96 60.7159C295.795 60.8011 295.629 60.8862 295.422 60.6817ZM293.707 55.7332L293.547 56.2315L292.924 56.032L293.168 55.6989C293.374 55.4887 293.459 55.6539 293.707 55.7332ZM292.982 50.6929C293.232 50.773 293.315 50.9375 293.235 51.1854C293.195 51.3106 293.03 51.3957 292.782 51.3163C292.657 51.2763 292.572 51.1111 292.612 50.9859C292.692 50.7356 292.857 50.6529 292.982 50.6929ZM295.511 57.8232C295.511 57.8232 295.517 58.2364 295.352 58.3215C294.196 58.5008 295.133 57.2882 295.511 57.8232ZM291.866 50.7471C292.116 50.8272 292.159 51.1168 292.119 51.2396C292.08 51.3624 291.875 51.5727 291.627 51.4934C291.502 51.4533 291.457 51.1629 291.496 51.0401C291.535 50.9173 291.741 50.7071 291.866 50.7471ZM292.095 56.0428C292.345 56.1229 292.718 56.2423 292.599 56.6154C292.519 56.8657 291.443 56.7948 292.095 56.0428ZM294.707 59.9038L294.881 60.6466L294.383 60.4872C294.252 60.0339 294.377 60.074 294.707 59.9038ZM295.027 58.9048C295.81 58.6061 295.582 60.181 294.867 59.4031C294.657 59.1979 295.027 58.9048 295.027 58.9048ZM295.302 61.0548C295.672 60.7618 296.016 61.8327 295.353 61.7583C295.063 61.8034 295.179 61.0155 295.302 61.0548ZM293.341 59.8779C293.671 59.7077 294.015 60.7809 293.474 60.7459C293.101 60.6265 293.176 59.963 293.341 59.8779ZM292.669 58.9756C292.584 58.8104 292.949 58.1018 293.282 58.3464C293.74 58.631 292.963 59.343 292.669 58.9756ZM291.191 53.2802C291.441 53.3603 291.524 53.5247 291.444 53.7727C291.404 53.8979 291.2 54.1058 290.952 54.0264C290.827 53.9864 290.659 53.6567 290.698 53.5339C290.778 53.2836 291.068 53.2409 291.191 53.2802ZM294.329 52.4959L293.705 52.2964C293.899 51.2598 294.648 51.4993 294.329 52.4959ZM294.098 50.6363C294.349 50.7164 294.431 50.8809 294.391 51.006C294.311 51.2564 294.147 51.3391 293.899 51.2598C293.774 51.2197 293.689 51.0545 293.768 50.8065C293.808 50.6814 293.973 50.5963 294.098 50.6363ZM294.348 61.0255C294.599 61.1056 294.681 61.27 294.602 61.518C294.562 61.6432 294.357 61.8511 294.109 61.7717C293.984 61.7317 293.816 61.402 293.856 61.2792C293.936 61.0289 294.225 60.9862 294.348 61.0255ZM290.488 49.8949C290.607 49.5218 291.476 49.3858 291.111 50.0944L290.906 50.3047C290.741 50.3898 290.448 50.0201 290.488 49.8949ZM292.873 51.8947C292.998 51.9348 293.206 52.1393 293.127 52.3872C293.087 52.5124 292.796 52.5575 292.674 52.5182C292.423 52.4381 292.341 52.2736 292.381 52.1484C292.461 51.8981 292.625 51.8154 292.873 51.8947ZM297.18 55.6083C296.438 55.7819 296.631 54.7453 297.047 54.7403C297.42 54.8597 297.511 55.4381 297.18 55.6083ZM290.787 50.6754C290.913 50.7155 290.958 51.0058 290.918 51.1286C290.838 51.379 290.674 51.4617 290.549 51.4217C290.298 51.3416 290.216 51.1771 290.295 50.9291C290.335 50.804 290.54 50.5961 290.787 50.6754ZM290.597 48.6907L291.301 48.6399L290.976 49.2233L290.597 48.6907ZM297.524 56.6815L296.941 56.3569L297.306 55.6483L297.929 55.8478L297.524 56.6815ZM292.195 54.013C292.32 54.0531 292.528 54.2576 292.488 54.3827C292.408 54.633 292.119 54.6757 291.996 54.6364C291.745 54.5563 291.663 54.3919 291.742 54.1439C291.782 54.0188 291.947 53.9337 292.195 54.013ZM294.158 59.0408C294.283 59.0808 294.491 59.2853 294.412 59.5333C294.332 59.7813 294.042 59.8263 293.919 59.787C293.669 59.7069 293.586 59.5425 293.666 59.2945C293.745 59.0465 293.91 58.9614 294.158 59.0408ZM293.766 57.2647C294.016 57.3448 294.099 57.5093 294.02 57.7572C293.979 57.8824 293.775 58.0903 293.527 58.011C293.279 57.9316 293.234 57.6412 293.273 57.5184C293.353 57.2681 293.518 57.1854 293.766 57.2647ZM294.946 52.2822C295.439 52.0285 295.823 52.9742 295.37 53.1052C294.917 53.2361 294.493 52.4131 294.946 52.2822ZM296.412 53.7144L297.035 53.9139C296.756 54.7877 295.968 54.6709 296.412 53.7144ZM295.145 61.9678L295.809 62.0422L295.569 62.7908L295.071 62.6313L295.145 61.9678ZM295.051 54.1017L295.041 53.273C295.954 53.4275 295.923 54.3806 295.051 54.1017ZM293.471 53.4605L293.835 52.752C294.289 52.621 294.465 53.3646 294.219 53.7001L293.471 53.4605ZM291.96 48.3042C292.211 48.3843 292.045 48.4694 292.13 48.6346C292.56 49.8707 291.063 49.3916 291.96 48.3042ZM295.565 55.5054L294.942 55.3059C295.136 54.2693 296.009 54.5489 295.565 55.5054ZM296.743 60.4172C296.868 60.4572 297.076 60.6617 296.996 60.9097C296.917 61.1576 296.627 61.2027 296.504 61.1634C296.254 61.0833 296.171 60.9188 296.25 60.6709C296.33 60.4229 296.495 60.3378 296.743 60.4172ZM297.117 57.1005C297.191 56.437 298.15 56.8818 298.071 57.1298C297.951 57.5029 297.083 57.6388 297.117 57.1005ZM291.402 50.0493L291.601 49.4259C291.732 49.8791 292.515 49.5803 292.316 50.2038C291.946 50.4968 291.777 50.1695 291.402 50.0493ZM295.943 59.4741L296.567 59.6736L296.766 59.0501L296.143 58.8506L295.943 59.4741ZM297.122 60.9497C297.036 60.7845 297.441 59.9532 297.899 60.2354C298.483 60.5601 297.415 61.3171 297.122 60.9497ZM297.205 57.6781C297.371 57.593 298.202 57.997 297.96 58.3308C297.595 59.0394 296.633 58.1821 297.205 57.6781ZM297.549 58.7514L298.173 58.9509L297.933 59.6995L297.224 59.3347C297.139 59.1695 297.509 58.8765 297.549 58.7514ZM296.524 52.511C296.774 52.5911 296.817 52.8807 296.737 53.1287C296.658 53.3766 296.493 53.4617 296.245 53.3824C295.997 53.3031 295.787 53.0978 295.866 52.8498C295.945 52.6019 296.276 52.4317 296.524 52.511ZM298.652 57.4537C298.902 57.5338 299.07 57.8634 298.991 58.1114C298.95 58.2366 298.621 58.4044 298.373 58.3251C298.248 58.285 298.08 57.9553 298.119 57.8325C298.199 57.5822 298.529 57.4144 298.652 57.4537ZM296.747 57.3935C296.997 57.4736 297.04 57.7632 297.001 57.886C296.921 58.1363 296.716 58.3442 296.468 58.2649C296.22 58.1855 296.05 57.8551 296.129 57.6072C296.169 57.482 296.499 57.3141 296.747 57.3935ZM293.949 62.2724C295.27 62.0079 294.627 63.5878 294 62.9759C293.79 62.7706 293.746 62.4834 293.949 62.2724ZM296.523 55.9471C296.787 57.2683 295.207 56.6248 295.819 55.9979C295.984 55.9128 296.272 55.867 296.523 55.9471ZM292.468 49.2892C292.548 49.0389 293.88 49.6031 293.43 50.1465C293.105 50.7298 292.636 49.6165 292.468 49.2892ZM298.762 59.6887C299.012 59.7688 299.22 59.9733 299.141 60.2213C299.061 60.4692 298.731 60.6394 298.483 60.5601C298.235 60.4807 298.19 60.1904 298.269 59.9424C298.349 59.6945 298.514 59.6093 298.762 59.6887ZM297.989 53.9432C298.239 54.0233 298.407 54.353 298.328 54.6009C298.249 54.8489 297.918 55.0191 297.67 54.9398C297.422 54.8604 297.377 54.5701 297.457 54.3221C297.536 54.0741 297.741 53.8639 297.989 53.9432ZM299.277 61.09C299.615 61.7478 298.209 61.847 298.283 61.1835C298.278 60.7704 299.021 60.5944 299.277 61.09ZM296.808 62.3618C296.398 62.78 295.641 61.7125 296.549 61.4538C297.127 61.3629 297.138 62.1916 296.808 62.3618ZM297.87 61.1893C298.121 61.2694 298.288 61.5991 298.209 61.847C298.13 62.095 297.799 62.2652 297.551 62.1859C297.303 62.1065 297.258 61.8161 297.338 61.5682C297.417 61.3202 297.622 61.1099 297.87 61.1893ZM296.552 51.5595L296.851 52.3424L295.814 52.1486C295.601 51.531 296.133 51.1521 296.552 51.5595ZM298.422 62.4671C298.368 61.3511 299.948 61.9923 299.171 62.7066C298.761 63.1248 298.388 63.0054 298.422 62.4671ZM298.512 56.1725C298.597 56.3377 299.349 56.9897 298.188 56.7559C297.977 56.5506 298.262 56.0924 298.177 55.9272C298.217 55.802 297.967 55.7219 297.884 55.5575C297.918 55.0191 298.866 54.6352 298.752 55.4239C298.712 55.549 298.467 55.8821 298.512 56.1725ZM299.172 59.2705C299.172 59.2705 298.429 59.4441 298.423 59.031C298.378 58.7406 298.748 58.4476 298.996 58.5269C299.161 58.4418 299.166 58.8573 299.289 58.8966C299.499 59.1019 299.702 58.8909 299.912 59.0961C300.37 59.3808 300.171 60.0042 299.507 59.9299C299.009 59.7704 299.253 59.4373 299.168 59.2721L299.172 59.2705ZM286.04 44.8971C286.664 41.6605 289.65 42.2048 292.139 42.5872C298.317 43.4655 305.346 45.9881 307.944 52.0418C311.779 61.1025 302.731 69.6175 294.1 64.3799C288.717 61.0094 286.643 53.749 286.075 47.7956C286.065 46.9669 285.925 45.6857 286.04 44.8971ZM289.256 47.3009C289.006 47.2208 288.468 47.1865 288.502 46.6482L287.884 46.8618C287.958 46.1984 288.254 46.5688 288.582 46.3979C289.032 45.8545 288.531 45.6943 288.571 45.5692C288.651 45.3188 289.303 44.5668 288.93 44.4474C288.68 44.3673 288.611 45.444 288.113 45.2845L288.327 45.9022L287.253 46.2461C287.373 45.8729 287.743 45.5776 287.863 45.2044C287.818 44.9141 287.524 44.5467 287.892 44.2506L287.474 43.8408C287.354 44.2139 287.605 44.294 287.444 44.7947L287.045 46.0415C287.005 46.1667 286.547 45.8821 286.676 46.3346L287.094 46.7443L286.684 47.1625L287.273 47.9003C287.398 47.9404 287.393 47.5272 287.852 47.8095C288.501 46.6427 288.755 47.1352 288.435 48.1341C288.31 48.0941 287.977 47.8495 287.852 47.8095L287.652 48.4329L287.234 48.0231L286.909 48.6065L287.248 49.2643C286.875 49.1449 286.923 49.8477 286.929 50.2608C286.974 50.5512 287.222 50.6305 287.308 50.7934C287.353 51.0838 287.234 51.4569 287.279 51.7473C287.245 52.2856 287.372 52.7404 287.463 53.3188C287.673 53.5241 287.628 53.2337 287.794 53.1486C288.124 52.9784 288.084 53.1035 288.252 53.4332L287.634 53.6469C288.058 54.4698 288.152 55.463 288.536 56.4087C288.531 55.9955 289.234 55.9447 289.115 56.3178C289.206 56.8962 288.622 56.5716 288.536 56.4087C288.79 56.9012 288.462 57.0722 289.413 57.1007C289.334 57.3495 289.197 57.4889 289.004 57.5189C289.297 57.8886 289.473 58.6322 290.136 58.7066L290.147 59.5353L290.77 59.7348L291.029 60.6428L291.607 60.5519L291.578 61.5058C292.321 61.3322 292.819 61.4916 292.207 62.1185C292.458 62.1986 292.746 62.1528 292.996 62.2329C293.076 61.9826 293.115 61.8598 293.406 61.8147C293.779 61.9341 293.955 62.6777 293.331 62.4782C293.206 62.4381 292.998 62.2336 292.998 62.2336C292.918 62.484 292.879 62.6068 293.089 62.812C293.507 63.2218 293.883 63.3419 294.421 63.3762L294.512 63.9546C295.216 63.9038 294.837 63.3712 295.204 63.0775C295.777 62.5734 296.081 63.7695 295.13 63.741L295.509 64.2735L295.628 63.9004C296.332 63.8496 296.462 64.3052 296.177 64.7634C296.795 64.5497 296.422 64.4303 296.542 64.0548C296.497 63.7645 296.661 63.6817 296.576 63.5165C296.616 63.3914 295.742 63.1118 296.317 62.6085L296.816 62.7679C297.066 62.848 296.821 63.1811 296.907 63.3463C296.992 63.5115 297.74 63.7511 297.29 64.2944L296.877 64.3002L297.301 65.1231L297.541 64.3745L298.079 64.4088C298.509 65.6449 298.658 64.3179 298.862 64.11C299.067 63.9021 299.275 64.1043 299.48 63.8964C298.936 63.4465 298.862 64.11 298.406 64.2402C297.703 64.291 297.698 63.8755 297.857 63.3772C296.741 63.4314 296.969 61.8565 298.137 62.5034L298.023 63.2921L298.646 63.4916C298.896 63.5717 299.011 62.783 299.469 63.0676L299.768 63.8505L300.132 63.142L299.384 62.9024C299.583 62.279 299.993 61.8608 300.62 62.4727L300.759 63.7539C301.673 63.9084 300.919 63.2556 300.834 63.0904C300.703 62.6372 300.914 62.8401 300.575 62.1824C300.49 62.0172 300.569 61.7692 300.569 61.7692C300.399 61.4388 300.239 61.9394 299.951 61.9829C298.998 61.9536 299.693 61.0748 299.693 61.0748C299.733 60.9497 299.36 60.8303 299.314 60.5422C299.18 59.6742 300.84 60.0675 299.857 60.9921L300.651 61.522C300.517 60.654 300.885 60.3602 300.256 59.7452L300.829 59.2411C300.416 59.2469 300.285 58.7913 300.035 58.7112C299.825 58.506 299.206 58.722 299.201 58.3065C299.282 58.0561 299.401 57.683 299.651 57.7631C299.942 57.7181 300.488 58.5803 300.648 58.082C300.728 57.8317 300.024 57.8825 300.019 57.4693C299.968 56.7658 300.428 57.0512 300.631 56.8401C299.838 56.3102 299.728 57.5144 299.564 57.5971L299.025 57.5629C298.815 57.3576 298.727 56.78 299.055 56.609L299.718 56.6833L300.328 55.6417C300.077 55.5616 299.909 55.2319 299.704 55.4422L299.795 56.0206C299.595 56.644 298.304 55.9547 299.371 55.1977C299.121 55.1176 298.662 54.8329 298.782 54.4598C299.107 53.8764 299.525 54.2862 299.818 54.6536L299.685 53.7856C299.475 53.5803 299.645 53.9107 299.48 53.9958C299.354 53.9558 299.147 53.7513 298.981 53.8364C298.856 53.7963 298.737 54.1695 298.612 54.1294C298.198 54.1352 298.108 53.5568 298.188 53.3065L297.937 53.2264L297.365 53.7304L296.907 53.4458C296.861 53.1554 297.191 52.9876 297.271 52.7372C297.311 52.6121 296.603 52.2474 297.301 51.7834C296.802 51.6239 295.71 50.3111 295.43 51.1849C295.35 51.4352 295.564 52.0529 295.066 51.8934C294.192 51.6138 295.22 50.9796 295.051 50.6523L293.514 50.2983C293.508 49.8852 294.132 50.0847 294.127 49.6691C294.082 49.3788 293.669 49.3845 293.543 49.3445L293.373 49.0141C293.533 48.5158 294.241 48.8805 294.151 48.2997L292.958 49.0167C291.837 48.6577 293.816 48.0544 293.602 47.4368C293.019 47.1121 293.397 47.647 293.232 47.7298C293.192 47.8549 292.942 47.7748 292.902 47.9C292.737 47.9851 292.657 48.2331 292.657 48.2331C292.657 48.2331 291.864 47.7031 291.455 48.1244C291.205 48.0443 291.45 47.7112 291.45 47.7112C291.325 47.6712 291.199 47.6311 291.117 47.4667C291.034 47.3022 291.072 47.1763 290.986 47.0135C291.026 46.8883 290.567 46.6037 290.482 46.4408C290.476 46.0277 290.972 45.7723 290.471 45.6121C290.021 46.1555 290.442 46.566 290.485 46.8533C290.445 46.9784 290.28 47.0635 290.24 47.1863C290.366 47.2264 290.989 47.4259 291.038 48.1287C290.832 48.3389 290.041 47.8098 289.956 47.6446C289.871 47.4793 290.075 47.2714 290.115 47.1463C290.03 46.9811 289.865 47.0662 289.782 46.9017C289.572 46.6965 289.817 46.3634 289.278 46.3291L289.358 46.0788L289.851 45.8251L289.353 45.6656L289.802 45.1223L289.344 44.8377C289.35 45.2508 289.025 45.8342 289.03 46.2497C288.95 46.5001 289.284 46.7423 289.249 47.283C290.165 47.8522 289.1 48.6099 289.13 47.6561C289.044 47.4909 289.21 47.4058 289.249 47.283L289.256 47.3009ZM288.509 43.6252L288.589 43.3749L288.135 43.5058L288.509 43.6252ZM288.879 43.3299L289.004 43.3699L289.084 43.1196L288.959 43.0795L288.879 43.3299ZM289.59 44.1094L289.047 43.6595L288.973 44.323L289.511 44.3573L289.591 44.107L289.59 44.1094ZM290.06 45.2203L290.433 45.3397C290.713 44.466 290.089 44.2665 290.06 45.2203ZM290.752 44.3432L290.459 43.9734L290.379 44.2238L290.752 44.3432ZM291.111 43.2214L291.361 43.3015L291.401 43.1764L291.151 43.0963L291.111 43.2214ZM291.965 45.2805L291.714 45.2004L291.595 45.5735L291.925 45.4033L291.965 45.2781L291.965 45.2805ZM292.364 44.0336L292.233 43.5804L292.113 43.9535L292.364 44.0336ZM291.691 46.5674L291.771 46.3171L291.521 46.237L291.691 46.5674ZM291.491 47.1909L291.616 47.2309L291.696 46.9806L291.571 46.9405L291.491 47.1909ZM292.274 46.8921C291.821 47.023 292.16 47.6807 292.368 47.8852C292.408 47.7601 292.601 46.7235 292.274 46.8921ZM292.842 45.9725L292.967 46.0126L293.086 45.6394L292.961 45.5994L292.842 45.9725ZM293.266 46.7955L292.893 46.6761L292.853 46.8012L293.106 47.2937L293.266 46.7955ZM293.425 46.2972L293.798 46.4166L293.838 46.2914L293.465 46.172L293.425 46.2972ZM294.344 46.8672L294.174 46.5367L294.139 47.0751L294.345 46.8648L294.344 46.8672ZM294.933 47.605C294.808 47.5649 294.065 47.7386 294.19 47.7786C294.523 48.0232 294.814 47.9781 294.933 47.605ZM295.042 46.4032L295.167 46.4432L295.247 46.1929L295.122 46.1528L295.042 46.4032ZM294.702 49.1815L295.194 48.9278C295.687 48.6741 294.153 48.3185 294.542 49.6822C294.755 50.2999 295.29 49.9217 295.538 50.0011C295.871 50.2456 295.843 51.1971 296.122 50.3257C296.151 49.3719 295 49.9668 294.701 49.1839L294.702 49.1815ZM295.625 46.7278C295.542 46.7011 295.487 46.7295 295.46 46.8129C295.433 46.8964 295.462 46.9515 295.545 46.9782C295.67 47.0182 295.795 47.0583 295.835 46.9331C295.875 46.8079 295.75 46.7679 295.625 46.7278ZM295.557 47.8045C295.557 47.8045 295.431 47.7644 295.391 47.8896C295.351 48.0148 295.476 48.0548 295.476 48.0548C295.602 48.0949 295.727 48.1349 295.767 48.0098C295.807 47.8846 295.682 47.8445 295.557 47.8045ZM296.728 45.4301L296.435 45.0604L296.4 45.5987L296.731 45.4285L296.728 45.4301ZM295.944 49.165C295.899 48.8746 295.813 48.7118 295.526 48.7552C295.446 49.0056 295.696 49.0857 295.944 49.165ZM296.448 46.3039L296.573 46.3439L296.653 46.0936L296.528 46.0536L296.448 46.3039ZM296.593 47.9982L296.713 47.6251L296.587 47.5851L296.218 47.8781L296.591 47.9975L296.593 47.9982ZM296.892 48.7811L296.818 49.4446L297.316 49.6041C297.356 49.4789 296.892 48.7811 296.892 48.7811ZM296.932 48.656L297.057 48.696L297.137 48.4457L297.012 48.4056L296.932 48.656ZM296.783 49.9829C296.618 50.0681 296.838 51.0989 297.042 50.891C296.997 50.6006 297.156 50.1023 296.783 49.9829ZM298.224 49.3453C298.099 49.3053 298.059 49.4305 298.019 49.5556C298.019 49.5556 297.979 49.6808 298.104 49.7208C298.229 49.7609 298.269 49.6357 298.269 49.6357C298.309 49.5106 298.349 49.3854 298.224 49.3453ZM298.278 50.4613L297.905 50.3419C297.95 50.6323 297.336 51.2584 297.876 51.2958L297.95 50.6323L298.28 50.4621L298.278 50.4613ZM298.255 51.8283L297.671 51.5037C297.427 51.8367 297.841 51.8341 297.802 51.9569C297.808 52.3701 297.312 52.6254 297.648 52.8707C297.728 52.6204 297.807 52.3724 298.012 52.1622C298.257 51.8291 298.636 52.3617 298.75 51.573L298.258 51.8267L298.255 51.8283ZM299.027 50.7009L298.776 50.6208L298.702 51.2842L298.827 51.3243L299.027 50.7009ZM299.175 49.3739L299.301 49.4139L299.42 49.0408L299.295 49.0008L299.175 49.3739ZM298.846 52.9809L298.473 52.8615L298.393 53.1119L298.806 53.1061L298.846 52.9809ZM299.421 52.4777C299.211 52.2724 298.923 52.3182 298.718 52.5285C298.968 52.6086 299.547 52.5177 299.421 52.4777ZM299.345 53.1404L299.094 53.0603L299.014 53.3106L299.184 53.641L299.344 53.1428L299.345 53.1404ZM299.576 51.5639L299.701 51.6039L299.86 51.1056L299.735 51.0656L299.576 51.5639ZM299.935 50.4421L300.06 50.4822L300.14 50.2319L300.015 50.1918L299.935 50.4421ZM300.294 49.3204L300.544 49.4005L300.584 49.2754L300.334 49.1953L300.294 49.3204ZM300.851 51.0114L300.108 51.185L300.153 51.4753L300.896 51.3017L300.851 51.0114ZM300.128 52.8416L300.378 52.9217L300.497 52.5486L300.247 52.4685L300.128 52.8416ZM300.523 54.6161L300.603 54.3657L300.273 54.536L300.523 54.6161ZM301.281 52.2475L301.111 51.917L301.031 52.1674L301.281 52.2475ZM300.682 54.1178L300.933 54.1979L301.092 53.6996L300.842 53.6195L300.682 54.1178ZM301.365 55.8488L300.651 55.0709C300.611 55.1961 300.79 56.3521 301.04 56.4322C300.995 56.1418 301.16 56.0591 301.365 55.8488ZM301.665 53.1956L301.372 52.8259L301.212 53.3241L301.585 53.4435L301.666 53.1932L301.665 53.1956ZM301.81 51.4562L302.183 51.5756L302.223 51.4504L301.85 51.331L301.81 51.4562ZM301.012 57.3837C300.602 57.8018 301.145 58.2517 301.151 58.6648C301.157 59.078 301.291 59.946 300.883 60.3649L301.381 60.5244L301.595 61.1421L301.96 60.4335L301.376 60.1089C301.206 59.7784 301.781 59.2752 301.695 59.1123C301.695 59.1123 301.405 59.1574 301.322 58.9929C301.152 58.6625 301.431 57.7911 301.013 57.3813L301.012 57.3837ZM301.176 57.3009L301.669 57.0472C301.336 56.8026 301.045 56.8477 300.926 57.2208L301.176 57.3009ZM302.02 55.0952L302.265 54.7621L301.852 54.7679L302.022 55.0983L302.02 55.0952ZM302.422 54.2631L302.129 53.8934L302.135 54.3065L302.425 54.2615L302.422 54.2631ZM301.696 55.6786L301.946 55.7587L302.065 55.3855L301.815 55.3054L301.696 55.6786ZM299.326 65.2297L299.407 64.9793L299.076 65.1496L299.326 65.2297ZM302.069 55.798C301.863 56.0082 302.2 56.2512 302.119 56.5015C302.079 56.6267 301.875 56.8346 301.835 56.9597C301.835 56.9597 302.125 56.9147 302.085 57.0398C302.295 57.2451 302.13 57.3302 302.378 57.4096L302.709 57.2393C302 56.8746 302.694 55.9982 302.071 55.7987L302.069 55.798ZM302.473 54.9666L302.723 55.0467L302.763 54.9216L302.513 54.8415L302.473 54.9666ZM299.731 64.396L299.856 64.436L299.936 64.1857L299.811 64.1456L299.731 64.396ZM302.213 57.4947L301.808 58.3284C302.722 58.4828 301.982 59.0712 302.363 59.6045C302.936 59.1005 302.224 58.3234 302.139 58.1582C302.219 57.9078 302.588 57.6148 302.213 57.4947ZM303.484 53.0905L303.609 53.1306L303.69 52.8803L303.564 52.8402L303.484 53.0905ZM303.594 55.3256L303.424 54.9951L303.344 55.2455L303.594 55.3256ZM301.446 62.4714L301.679 61.3096C301.554 61.2696 300.907 62.4371 301.446 62.4714ZM300.603 64.6748L300.853 64.7549L300.893 64.6297L300.643 64.5496L300.603 64.6748ZM303.167 57.524L303.417 57.6041C303.622 57.3938 303.451 57.0657 303.203 56.9864L303.169 57.5247L303.167 57.524ZM302.662 60.3874L302.531 59.9342L302.246 60.3924L302.497 60.4725L302.662 60.3874ZM302.394 62.0875L301.456 63.3001C301.627 63.6305 302.852 62.3721 302.394 62.0875ZM303.169 57.9387L303.638 59.052C303.798 58.5538 303.505 58.184 303.169 57.9387ZM303.232 59.4686L302.899 59.2241L302.819 59.4744L303.232 59.4686ZM301.385 64.376C301.511 64.4161 301.924 64.4103 301.964 64.2852C302.083 63.912 301.34 64.0857 301.385 64.376ZM302.756 61.3782L302.631 61.3382L302.261 61.6312L302.634 61.7506L302.754 61.3775L302.756 61.3782ZM303.355 59.5079L303.605 59.588L303.645 59.4629L303.395 59.3827L303.355 59.5079ZM302.937 62.5374L303.187 62.6175L303.227 62.4923L302.977 62.4122L302.937 62.5374ZM302.866 63.6133C302.866 63.6133 302.701 63.6984 302.661 63.8235C302.621 63.9487 302.746 63.9887 302.746 63.9887C302.871 64.0288 302.996 64.0688 303.036 63.9437C303.076 63.8185 302.991 63.6533 302.866 63.6133ZM303.38 61.5777L303.505 61.6178L303.585 61.3675L303.46 61.3274L303.38 61.5777ZM303.385 61.9933L303.758 62.1127L303.798 61.9875L303.425 61.8681L303.385 61.9933ZM304.826 61.3533L304.656 61.0229L304.576 61.2732L304.826 61.3533Z" fill="#00C3FF" />
</svg>